<?xml version="1.0" encoding="UTF-8" standalone="no"?>
<svg
   id="Layer_1"
   version="1.1"
   viewBox="0 0 145.39999 145.4"
   sodipodi:docname="ocm-logo-icon-colour.svg"
   width="145.39999"
   height="145.39999"
   inkscape:version="1.4.2 (ebf0e940, 2025-05-08)"
   xmlns:inkscape="http://www.inkscape.org/namespaces/inkscape"
   xmlns:sodipodi="http://sodipodi.sourceforge.net/DTD/sodipodi-0.dtd"
   xmlns="http://www.w3.org/2000/svg"
   xmlns:svg="http://www.w3.org/2000/svg">
  <sodipodi:namedview
     id="namedview6"
     pagecolor="#ffffff"
     bordercolor="#000000"
     borderopacity="0.25"
     inkscape:showpageshadow="2"
     inkscape:pageopacity="0.0"
     inkscape:pagecheckerboard="0"
     inkscape:deskcolor="#d1d1d1"
     inkscape:zoom="1.369322"
     inkscape:cx="57.692786"
     inkscape:cy="101.14495"
     inkscape:window-width="1024"
     inkscape:window-height="604"
     inkscape:window-x="415"
     inkscape:window-y="256"
     inkscape:window-maximized="0"
     inkscape:current-layer="Layer_1" />
  <!-- Generator: Adobe Illustrator 29.2.0, SVG Export Plug-In . SVG Version: 2.1.0 Build 108)  -->
  <defs
     id="defs2">
    <style
       id="style1">
      .st0 {
        fill: #fff;
      }

      .st0, .st1, .st2 {
        fill-rule: evenodd;
      }

      .st1 {
        fill: url(#linear-gradient);
      }

      .st2 {
        fill: #407bd4;
      }
    </style>
    <linearGradient
       id="linear-gradient"
       x1="3348.8"
       y1="2398.7"
       x2="3348.8999"
       y2="2398.7"
       gradientTransform="matrix(338.02935,313.01861,313.01861,-338.02935,-1882854.2,-236563.3)"
       gradientUnits="userSpaceOnUse">
      <stop
         offset="0"
         stop-color="#2e5b9d"
         id="stop1" />
      <stop
         offset="1"
         stop-color="#3b72c7"
         id="stop2" />
    </linearGradient>
  </defs>
  <path
     class="st2"
     d="M 98.2,3.6 C 93.7,2 89.1,0.7 84.4,0 l -4.6,5.1 c -5,-0.5 -10,-0.5 -14.9,0 l -4.7,-5 C 55.5,0.9 50.9,2.2 46.5,3.9 L 45,10.6 c -4.6,2 -8.9,4.6 -12.9,7.5 l -6.5,-2 c -3.7,3 -7,6.4 -10,10.1 l 2.1,6.5 c -2.9,4 -5.4,8.4 -7.4,13 L 3.6,47.2 C 2,51.7 0.7,56.3 0,61 l 5.1,4.6 c -0.5,5 -0.5,10 0,14.9 l -5,4.7 c 0.8,4.7 2.1,9.3 3.8,13.7 l 6.7,1.5 c 2,4.6 4.6,8.9 7.5,12.9 l -2,6.5 c 3,3.7 6.4,7 10.1,10 l 6.5,-2.1 c 4,2.9 8.4,5.4 13,7.4 l 1.5,6.7 c 4.5,1.6 9.1,2.9 13.8,3.6 l 4.6,-5.1 c 5,0.5 10,0.5 14.9,0 l 4.7,5 c 4.7,-0.8 9.3,-2.1 13.7,-3.8 l 1.5,-6.7 c 4.6,-2 8.9,-4.6 12.9,-7.5 l 6.5,2 c 3.7,-3 7,-6.4 10,-10.1 l -2.1,-6.5 c 2.9,-4 5.4,-8.4 7.4,-13 l 6.7,-1.5 c 1.6,-4.5 2.9,-9.1 3.6,-13.8 l -5.1,-4.6 c 0.5,-5 0.5,-10 0,-14.9 l 5,-4.7 c -0.8,-4.7 -2.1,-9.3 -3.8,-13.7 L 134.8,45 c -2,-4.6 -4.6,-8.9 -7.5,-12.9 l 2,-6.5 c -3,-3.7 -6.4,-7 -10.1,-10 l -6.5,2.1 c -4,-2.9 -8.4,-5.4 -13,-7.4 z"
     id="path2" />
  <path
     class="st1"
     d="M 68.7,140.7 29.9,103.5 65.1,76.5 51.9,64.5 94.2,41.7 143.8,92 c -0.6,2.1 -1.2,4.2 -2,6.2 l -6.7,1.5 c -2,4.6 -4.5,8.9 -7.4,13 l 2.1,6.5 c -3,3.7 -6.4,7.1 -10,10.1 l -6.5,-2 c -4,3 -8.3,5.5 -12.9,7.5 l -1.5,6.7 c -4.4,1.7 -9,3 -13.7,3.8 l -4.7,-5 c -4,0.5 -8,0.6 -11.9,0.3 z"
     id="path3"
     style="fill:url(#linear-gradient)" />
  <path
     class="st0"
     d="m 64.9,74.9 c 0,0.1 0.1,0.2 0.2,0.3 1.1,0.6 6.9,4 6.9,4 v 7.4 c 0,0 0,0.1 0,0.2 v 0.3 c -0.6,1 -1.7,1.5 -2.7,1.2 L 68,88 c -1.1,-0.3 -2.2,0 -3.1,0.6 -0.9,0.7 -1.4,1.7 -1.4,2.9 v 0 c 0,1.1 0.5,2.2 1.4,2.9 0.9,0.7 2,0.9 3.1,0.6 l 1.4,-0.4 c 1,-0.3 2,0.2 2.4,1.1 l 0.2,0.4 c 0,0 0,0.1 0,0.2 v 7.4 L 50.9,115.9 29.8,103.7 V 79.4 L 50.9,67.2 c 0,0 6.6,3.8 7.7,4.4 0,0 0.2,0 0.3,0 0.8,-0.2 1.4,-0.5 2,-0.9 1.1,-0.6 1.9,-1.6 1.9,-2.8 0,0 0,0 0,0 0,-0.7 0.3,-1.3 0.9,-1.6 0.6,-0.4 1.2,-0.5 1.9,-0.3 0.3,0.1 0.6,0.3 0.8,0.5 0.5,0.4 0.8,1.2 0.7,1.9 -0.1,0.7 -0.4,1.2 -1,1.5 -1.1,0.6 -1.6,1.8 -1.6,3 0,0.7 0,1.5 0.3,2.2 z"
     id="path4" />
  <path
     class="st0"
     d="m 80.4,74.1 c -0.1,0 -0.2,0 -0.3,0 -1.1,0.6 -6.9,4 -6.9,4 l -6.4,-3.7 c 0,0 0,0 -0.1,-0.1 L 66.5,74.1 C 65.9,73.2 66,72 66.7,71.2 l 0.9,-0.9 c 0.8,-0.8 1.2,-1.9 1,-3 -0.1,-1.1 -0.8,-2.1 -1.8,-2.6 v 0 c -1,-0.6 -2.1,-0.6 -3.2,-0.2 -1,0.4 -1.8,1.3 -2.1,2.4 l -0.4,1.4 c -0.3,1 -1.2,1.6 -2.2,1.5 h -0.4 c 0,0 -0.2,0 -0.2,-0.1 L 51.9,66 V 41.7 C 51.9,41.7 73,29.5 73,29.5 L 94.1,41.7 V 66 c 0,0 -6.6,3.8 -7.7,4.4 0,0 -0.2,0.2 -0.2,0.3 -0.2,0.8 -0.3,1.5 -0.2,2.2 0.2,1.2 0.5,2.5 1.5,3.1 0,0 0,0 0,0 0.6,0.3 0.9,0.9 1,1.6 0,0.7 -0.1,1.3 -0.6,1.8 -0.3,0.2 -0.5,0.4 -0.9,0.5 -0.6,0.2 -1.4,0 -2,-0.3 -0.6,-0.3 -0.8,-1 -0.8,-1.6 0,-1.2 -0.8,-2.3 -1.8,-2.9 -0.6,-0.3 -1.3,-0.7 -2.1,-0.9 z"
     id="path5" />
  <path
     class="st0"
     d="m 73.3,87.9 c 0,0 0.1,-0.2 0.1,-0.3 0,-1.2 0,-8 0,-8 l 6.4,-3.7 c 0,0 0.1,0 0.2,0 h 0.3 c 1.1,-0.1 2.1,0.6 2.4,1.6 l 0.3,1.3 c 0.3,1.1 1.1,2 2.1,2.4 1,0.4 2.2,0.3 3.2,-0.2 v 0 c 1,-0.6 1.6,-1.5 1.8,-2.6 0.1,-1.1 -0.2,-2.2 -1,-3 l -1,-1 c -0.7,-0.7 -0.8,-1.8 -0.2,-2.7 l 0.2,-0.3 c 0,0 0.1,-0.1 0.2,-0.2 l 6.4,-3.7 21.1,12.1 v 24.3 c 0,0 -21,12.2 -21,12.2 L 73.7,104 c 0,0 0,-7.6 0,-8.9 0,-0.1 0,-0.2 -0.1,-0.3 -0.5,-0.6 -1,-1.1 -1.6,-1.4 -0.7,-0.4 -2.5,-0.7 -3.6,0 0,0 0,0 0,0 -0.6,0.3 -1.3,0.3 -1.9,0 -0.6,-0.3 -1.1,-0.8 -1.2,-1.4 0,-0.3 0,-0.7 0,-1 0.1,-0.6 0.7,-1.3 1.3,-1.5 0.6,-0.2 1.3,-0.3 1.8,0 1.1,0.6 2.4,0.5 3.4,-0.1 C 72.4,89 73,88.6 73.6,88 Z"
     id="path6" />
</svg>
