<?xml version="1.0" encoding="UTF-8"?>
<svg id="Layer_1" xmlns="http://www.w3.org/2000/svg" xmlns:xlink="http://www.w3.org/1999/xlink" version="1.1" viewBox="0 0 202.3 151.9">
  <!-- Generator: Adobe Illustrator 29.2.0, SVG Export Plug-In . SVG Version: 2.1.0 Build 108)  -->
  <defs>
    <style>
      .st0 {
        fill: #fff;
      }

      .st0, .st1, .st2 {
        fill-rule: evenodd;
      }

      .st1 {
        fill: url(#linear-gradient);
      }

      .st2 {
        fill: #407bd4;
      }
    </style>
    <linearGradient id="linear-gradient" x1="3348.8" y1="2398.7" x2="3348.9" y2="2398.7" gradientTransform="translate(-1882825.8 -236560.1) rotate(42.8) scale(460.7 -460.7)" gradientUnits="userSpaceOnUse">
      <stop offset="0" stop-color="#2e5b9d"/>
      <stop offset="1" stop-color="#3b72c7"/>
    </linearGradient>
  </defs>
  <path class="st2" d="M126.6,6.8c-4.5-1.6-9.1-2.9-13.8-3.6l-4.6,5.1c-5-.5-10-.5-14.9,0l-4.7-5c-4.7.8-9.3,2.1-13.7,3.8l-1.5,6.7c-4.6,2-8.9,4.6-12.9,7.5l-6.5-2c-3.7,3-7,6.4-10,10.1l2.1,6.5c-2.9,4-5.4,8.4-7.4,13l-6.7,1.5c-1.6,4.5-2.9,9.1-3.6,13.8l5.1,4.6c-.5,5-.5,10,0,14.9l-5,4.7c.8,4.7,2.1,9.3,3.8,13.7l6.7,1.5c2,4.6,4.6,8.9,7.5,12.9l-2,6.5c3,3.7,6.4,7,10.1,10l6.5-2.1c4,2.9,8.4,5.4,13,7.4l1.5,6.7c4.5,1.6,9.1,2.9,13.8,3.6l4.6-5.1c5,.5,10,.5,14.9,0l4.7,5c4.7-.8,9.3-2.1,13.7-3.8l1.5-6.7c4.6-2,8.9-4.6,12.9-7.5l6.5,2c3.7-3,7-6.4,10-10.1l-2.1-6.5c2.9-4,5.4-8.4,7.4-13l6.7-1.5c1.6-4.5,2.9-9.1,3.6-13.8l-5.1-4.6c.5-5,.5-10,0-14.9l5-4.7c-.8-4.7-2.1-9.3-3.8-13.7l-6.7-1.5c-2-4.6-4.6-8.9-7.5-12.9l2-6.5c-3-3.7-6.4-7-10.1-10l-6.5,2.1c-4-2.9-8.4-5.4-13-7.4l-1.5-6.7Z"/>
  <path class="st1" d="M97.1,143.9l-38.8-37.2,35.2-27-13.2-12,42.3-22.8,49.6,50.3c-.6,2.1-1.2,4.2-2,6.2l-6.7,1.5c-2,4.6-4.5,8.9-7.4,13l2.1,6.5c-3,3.7-6.4,7.1-10,10.1l-6.5-2c-4,3-8.3,5.5-12.9,7.5l-1.5,6.7c-4.4,1.7-9,3-13.7,3.8l-4.7-5c-4,.5-8,.6-11.9.3Z"/>
  <path class="st0" d="M93.3,78.1c0,.1.1.2.2.3,1.1.6,6.9,4,6.9,4v7.4c0,0,0,.1,0,.2v.3c-.6,1-1.7,1.5-2.7,1.2l-1.3-.3c-1.1-.3-2.2,0-3.1.6-.9.7-1.4,1.7-1.4,2.9h0c0,1.1.5,2.2,1.4,2.9.9.7,2,.9,3.1.6l1.4-.4c1-.3,2,.2,2.4,1.1l.2.4c0,0,0,.1,0,.2v7.4l-21.1,12.2-21.1-12.2v-24.3l21.1-12.2s6.6,3.8,7.7,4.4c0,0,.2,0,.3,0,.8-.2,1.4-.5,2-.9,1.1-.6,1.9-1.6,1.9-2.8,0,0,0,0,0,0,0-.7.3-1.3.9-1.6.6-.4,1.2-.5,1.9-.3.3.1.6.3.8.5.5.4.8,1.2.7,1.9s-.4,1.2-1,1.5c-1.1.6-1.6,1.8-1.6,3,0,.7,0,1.5.3,2.2Z"/>
  <path class="st0" d="M108.8,77.3c-.1,0-.2,0-.3,0-1.1.6-6.9,4-6.9,4l-6.4-3.7s0,0-.1-.1l-.2-.2c-.6-.9-.5-2.1.2-2.9l.9-.9c.8-.8,1.2-1.9,1-3-.1-1.1-.8-2.1-1.8-2.6h0c-1-.6-2.1-.6-3.2-.2-1,.4-1.8,1.3-2.1,2.4l-.4,1.4c-.3,1-1.2,1.6-2.2,1.5h-.4c0,0-.2,0-.2-.1l-6.4-3.7v-24.3s21.1-12.2,21.1-12.2l21.1,12.2v24.3s-6.6,3.8-7.7,4.4c0,0-.2.2-.2.3-.2.8-.3,1.5-.2,2.2.2,1.2.5,2.5,1.5,3.1,0,0,0,0,0,0,.6.3.9.9,1,1.6,0,.7-.1,1.3-.6,1.8-.3.2-.5.4-.9.5-.6.2-1.4,0-2-.3s-.8-1-.8-1.6c0-1.2-.8-2.3-1.8-2.9-.6-.3-1.3-.7-2.1-.9Z"/>
  <path class="st0" d="M101.7,91.1c0,0,.1-.2.1-.3,0-1.2,0-8,0-8l6.4-3.7s.1,0,.2,0h.3c1.1-.1,2.1.6,2.4,1.6l.3,1.3c.3,1.1,1.1,2,2.1,2.4,1,.4,2.2.3,3.2-.2h0c1-.6,1.6-1.5,1.8-2.6.1-1.1-.2-2.2-1-3l-1-1c-.7-.7-.8-1.8-.2-2.7l.2-.3c0,0,.1-.1.2-.2l6.4-3.7,21.1,12.1v24.3c0,0-21,12.2-21,12.2l-21.1-12.1s0-7.6,0-8.9c0-.1,0-.2-.1-.3-.5-.6-1-1.1-1.6-1.4-.7-.4-2.5-.7-3.6,0,0,0,0,0,0,0-.6.3-1.3.3-1.9,0-.6-.3-1.1-.8-1.2-1.4,0-.3,0-.7,0-1,.1-.6.7-1.3,1.3-1.5s1.3-.3,1.8,0c1.1.6,2.4.5,3.4-.1.6-.4,1.2-.8,1.8-1.4Z"/>
</svg>