<svg xmlns="http://www.w3.org/2000/svg" xml:space="preserve" style="fill-rule:evenodd;clip-rule:evenodd;stroke-linejoin:round;stroke-miterlimit:2" viewBox="0 0 2167 2044">
    <path d="M-2148.626-1030.015H612.577v2165.427h-2761.203z" style="fill:none" transform="matrix(.78434 0 0 .94379 1686.22 972.244)"/>
    <path d="m756.223 512.868 4.725 9.026a101.5 101.5 0 0 1 21.513 5.765l8.605-5.455h.003a110 110 0 0 1 18.405 10.626l.001.003-.421 10.179a101.5 101.5 0 0 1 15.748 15.749l10.18-.421.003.001a110 110 0 0 1 10.626 18.405v.003l-5.455 8.605a101.5 101.5 0 0 1 5.765 21.513l9.026 4.725.002.003c.686 7.067.686 14.184 0 21.252l-.002.002-9.026 4.725a101.5 101.5 0 0 1-5.765 21.513l5.455 8.605v.004a110 110 0 0 1-10.626 18.404l-.003.002-10.18-.421a101.5 101.5 0 0 1-15.748 15.748l.421 10.179-.001.003a110 110 0 0 1-18.405 10.626h-.003l-8.605-5.454a101.5 101.5 0 0 1-21.513 5.764l-4.725 9.026-.003.002c-7.067.687-14.184.687-21.252 0l-.002-.002-4.726-9.026a101.5 101.5 0 0 1-21.512-5.764l-8.605 5.454h-.004a110 110 0 0 1-18.404-10.626l-.002-.003.421-10.179a101.5 101.5 0 0 1-15.748-15.748l-10.18.421-.002-.002a110 110 0 0 1-10.626-18.404v-.004l5.454-8.605a101.5 101.5 0 0 1-5.764-21.513l-9.026-4.725-.002-.002a110 110 0 0 1 0-21.252l.002-.003 9.026-4.725a101.5 101.5 0 0 1 5.764-21.513l-5.454-8.605v-.003a110 110 0 0 1 10.626-18.405l.002-.001 10.18.421a101.5 101.5 0 0 1 15.748-15.749l-.421-10.179.002-.003a110 110 0 0 1 18.404-10.626h.004l8.605 5.455a101.5 101.5 0 0 1 21.512-5.765l4.726-9.026.002-.002a110 110 0 0 1 21.252 0zM735.086 628.21c-.581-1.029-.948-2.12-1.228-3.106-.492-1.724-.158-3.633 1.147-4.944a2.96 2.96 0 0 0 .818-2.59c-.163-.944-.871-1.966-1.709-2.431a3.4 3.4 0 0 0-1.405-.423c-.984-.07-1.891.452-2.558 1.179a2.93 2.93 0 0 0-.68 2.696l.013.058c.455 1.801-.341 3.583-1.695 4.822-.634.83-1.475 1.52-2.532 2.064a.68.68 0 0 1-.493.05l-12.761-3.502-25.803 25.491 9.175 35.091 34.977 9.6 25.803-25.491-2.775-10.613a.8.8 0 0 0-.156-.302l-.39-.467a3.1 3.1 0 0 0-3.916-.704l-1.871 1.069a5.36 5.36 0 0 1-7.841-3.298l-.001-.001a5.36 5.36 0 0 1 5.221-6.714l1.966.014a3.34 3.34 0 0 0 3.308-2.747l.077-.424a.6.6 0 0 0-.01-.243l-2.787-10.661-11.481-3.152a.68.68 0 0 1-.413-.321m22.119-6.96c1.182.011 2.31.239 3.305.489 1.738.437 3.224 1.68 3.708 3.466.25.925.933 1.673 1.833 2.003s2.118.194 2.96-.265c.446-.243.789-.594 1.069-1.005.555-.815.554-1.864.258-2.804a2.93 2.93 0 0 0-2.037-1.951c-1.786-.507-2.682-2.192-3.393-3.877-.311-.977-.522-2.043-.471-3.229a.7.7 0 0 1 .203-.455l9.413-9.299-9.174-35.092-34.978-9.599-25.802 25.491 9.175 35.091 10.578 2.903a.8.8 0 0 0 .34.016l.6-.104a3.1 3.1 0 0 0 2.567-3.04l.01-2.154a5.36 5.36 0 0 1 6.776-5.142l.002.001a5.36 5.36 0 0 1 3.203 7.878l-.994 1.695a3.34 3.34 0 0 0 .725 4.239l.329.278a.55.55 0 0 0 .215.113l10.626 2.917 8.47-8.367a.7.7 0 0 1 .484-.197m-5.074 22.339c-.598 1.02-1.357 1.885-2.068 2.623-1.244 1.291-3.062 1.961-4.851 1.492a2.96 2.96 0 0 0-2.651.594c-.734.616-1.283 1.742-1.242 2.7.021.5.119.977.34 1.427.434.885 1.341 1.408 2.304 1.619a2.93 2.93 0 0 0 2.673-.766l.04-.04c1.328-1.297 4.062-1.517 5.19-1.215.991.265 1.909.754 2.899 1.412a.7.7 0 0 1 .283.396l3.384 12.795 35.005 9.5 25.729-25.565-9.275-35.065-35.004-9.5-7.782 7.732a.8.8 0 0 0-.183.287l-.208.572a3.1 3.1 0 0 0 1.36 3.739l1.863 1.081a5.358 5.358 0 0 1 1.089 8.436l-.001.001a5.358 5.358 0 0 1-8.427-1.141l-.976-1.706a3.34 3.34 0 0 0-4.038-1.48l-.405.147a.6.6 0 0 0-.205.13l-7.817 7.767 3.044 11.51a.7.7 0 0 1-.07.518" style="fill:#257ddc" transform="rotate(14.653 17321.913 -14511.519)scale(7.43198)"/>
    <path d="m230.505 757.861 77.465 78.52a115 115 0 0 1-3.1 9.737l-10.393 2.395a106.2 106.2 0 0 1-11.535 20.262l3.246 10.16a115 115 0 0 1-15.634 15.825l-10.199-3.123a106.2 106.2 0 0 1-20.12 11.78l-2.269 10.422a115 115 0 0 1-21.451 5.888l-7.272-7.804c-6.189.721-12.427.896-18.641.525l-60.517-58.043.064-.049 32.815 18.945 32.879-18.983v-11.482a.8.8 0 0 0-.078-.347l-.271-.576a3.245 3.245 0 0 0-3.78-1.75l-2.177.587a5.606 5.606 0 0 1-7.067-5.416v-.001a5.605 5.605 0 0 1 7.064-5.416l1.987.534a3.495 3.495 0 0 0 4.078-1.906l.189-.409a.6.6 0 0 0 .055-.249v-11.534s-9.145-5.28-10.791-6.232a.7.7 0 0 1-.334-.434c-.316-1.196-.398-2.398-.422-3.471-.04-1.876.803-3.72 2.472-4.703a3.1 3.1 0 0 0 1.514-2.406c.085-.999-.362-2.222-1.088-2.914a3.5 3.5 0 0 0-1.311-.8c-.977-.332-2.034-.044-2.901.516a3.07 3.07 0 0 0-1.404 2.55l-.001.063c-.017 1.943-1.294 3.538-2.993 4.433-.475.251-1.294.96-2.261 1.197-.677.166-1.478.149-1.478.149s-1.026-.714-2.195-1.328l-7.913-7.189 9.953 5.771q.158.09.34.106l.635.053c1.566.131 3-.88 3.405-2.398l.581-2.179a5.607 5.607 0 0 1 8.223-3.413l.002.001a5.61 5.61 0 0 1 1.158 8.826l-1.457 1.454a3.494 3.494 0 0 0-.388 4.484l.26.369q.075.106.188.172l9.989 5.767s9.145-5.281 10.792-6.23a.72.72 0 0 1 .543-.072c1.194.324 2.276.854 3.217 1.37 1.645.903 2.82 2.556 2.837 4.492a3.1 3.1 0 0 0 1.326 2.514c.824.574 2.094.757 3.068.516.516-.128.956-.393 1.349-.736.777-.678 1.054-1.74 1.003-2.771a3.06 3.06 0 0 0-1.506-2.49c-.001-.002-.032-.02-.039-.025-1.675-.986-2.136-2.93-2.411-4.824-.056-1.072.013-2.208.379-3.395a.72.72 0 0 1 .326-.407l11.995-6.925zm-65.758 35.95-.357-.324.357-.192zm33.161 35.963c-.876.875-1.874 1.549-2.789 2.109-1.602.978-3.621 1.175-5.308.226a3.1 3.1 0 0 0-2.842-.1c-.907.429-1.76 1.424-1.973 2.405a3.7 3.7 0 0 0-.033 1.535c.205 1.012.985 1.781 1.904 2.249.92.469 2.014.444 2.91-.067.04-.025.044-.026.051-.03 1.689-.962 4.515-.46 5.578.144.933.53 1.733 1.269 2.561 2.197.117.131.182.3.182.476l.04 13.853 32.933 18.889 32.825-19.076-.108-37.966-32.934-18.889-9.927 5.77a.8.8 0 0 0-.261.242l-.362.524a3.245 3.245 0 0 0 .386 4.147l1.602 1.588a5.61 5.61 0 0 1-1.131 8.831l-.002.001a5.61 5.61 0 0 1-8.232-3.387l-.537-1.986a3.495 3.495 0 0 0-3.697-2.568l-.449.042a.6.6 0 0 0-.242.077l-9.972 5.796s.03 10.56.034 12.461a.72.72 0 0 1-.207.507" style="fill:#1d65b4" transform="translate(-314.52 -4703.642)scale(7.1002)"/>
    <path d="M165.707 204.717a.68.68 0 0 0 .319.415l10.309 5.954v11.019a.55.55 0 0 1-.052.237l-.181.391a3.34 3.34 0 0 1-3.896 1.821l-1.898-.51a5.357 5.357 0 0 0-6.749 5.174v.002a5.36 5.36 0 0 0 6.752 5.173l2.08-.56a3.1 3.1 0 0 1 3.611 1.671l.259.551a.8.8 0 0 1 .074.332v10.969l-31.411 18.136-31.411-18.136v-36.27l31.411-18.136 11.46 6.617a.7.7 0 0 0 .49.076q1.739-.391 2.972-1.357c1.624-.856 2.844-2.379 2.86-4.236l.001-.059a2.93 2.93 0 0 1 1.341-2.437c.829-.534 1.839-.81 2.772-.493.484.164.897.425 1.253.765.693.661 1.12 1.829 1.039 2.784a2.96 2.96 0 0 1-1.447 2.298c-1.594.939-2.4 2.701-2.361 4.494.022 1.025.101 2.172.403 3.315" style="fill:#fff" transform="matrix(7.43197 0 0 7.43198 -234.517 -476.162)"/>
    <path d="M165.707 204.717a.68.68 0 0 0 .319.415l10.309 5.954v11.019a.55.55 0 0 1-.052.237l-.181.391a3.34 3.34 0 0 1-3.896 1.821l-1.898-.51a5.357 5.357 0 0 0-6.749 5.174v.002a5.36 5.36 0 0 0 6.752 5.173l2.08-.56a3.1 3.1 0 0 1 3.611 1.671l.259.551a.8.8 0 0 1 .074.332v10.969l-31.411 18.136-31.411-18.136v-36.27l31.411-18.136 11.46 6.616a.7.7 0 0 0 .492.076c1.157-.265 2.13-.75 2.989-1.309 1.437-1.132 2.825-2.442 2.841-4.298l.001-.044a2.93 2.93 0 0 1 1.341-2.437c.829-.534 1.839-.812 2.772-.493.471.161.9.399 1.253.765.665.69 1.12 1.829 1.039 2.784a2.96 2.96 0 0 1-1.447 2.298c-1.594.939-2.4 2.701-2.361 4.494.022 1.025.101 2.172.403 3.315" style="fill:#fff" transform="rotate(120 1340.236 1261.131)scale(7.43198)"/>
    <path d="M165.707 204.717a.68.68 0 0 0 .319.415l10.309 5.954v11.019a.55.55 0 0 1-.052.237l-.181.391a3.34 3.34 0 0 1-3.896 1.821l-1.898-.51a5.357 5.357 0 0 0-6.749 5.174v.002a5.36 5.36 0 0 0 6.752 5.173l2.08-.56a3.1 3.1 0 0 1 3.611 1.671l.259.551a.8.8 0 0 1 .074.332v10.969l-31.411 18.136-31.411-18.136v-36.27l31.411-18.136 11.462 6.618a.7.7 0 0 0 .48.078c1.164-.239 2.159-.545 3.045-1.061 1.009-.588 2.78-2.682 2.796-4.538v-.056a2.93 2.93 0 0 1 1.341-2.437c.829-.534 1.838-.809 2.772-.493a3.5 3.5 0 0 1 1.253.765c.708.646 1.12 1.829 1.039 2.784a2.96 2.96 0 0 1-1.447 2.298c-1.594.939-2.4 2.701-2.361 4.494.022 1.025.101 2.172.403 3.315" style="fill:#fff" transform="rotate(239.836 1065.127 1395.216)scale(7.43198 7.43197)"/>
</svg>
