<?xml version="1.0" encoding="UTF-8" standalone="no"?>
<!DOCTYPE svg PUBLIC "-//W3C//DTD SVG 1.1//EN" "http://www.w3.org/Graphics/SVG/1.1/DTD/svg11.dtd">
<svg width="100%" height="100%" viewBox="0 0 1650 1650" version="1.1" xmlns="http://www.w3.org/2000/svg" xmlns:xlink="http://www.w3.org/1999/xlink" xml:space="preserve" xmlns:serif="http://www.serif.com/" style="fill-rule:evenodd;clip-rule:evenodd;stroke-linejoin:round;stroke-miterlimit:2;">
    <g transform="matrix(1,0,0,1,-2843.17,-4047.28)">
        <g transform="matrix(0.597566,0,0,0.761975,4127.11,4832.12)">
            <rect id="Logo-Image" serif:id="Logo Image" x="-2148.63" y="-1030.02" width="2761.2" height="2165.43" style="fill:none;"/>
            <g id="Logo-Image1" serif:id="Logo Image">
                <g id="Image" transform="matrix(5.97851,0,0,4.68854,-3396.53,-1358.67)">
                    <g transform="matrix(2.01264,0.526226,-0.526226,2.01264,-733.528,-1343.63)">
                        <path d="M756.22,512.87C749.153,512.183 742.036,512.183 734.969,512.87L730.243,521.897C722.881,523.024 715.666,524.957 708.727,527.662L700.121,522.207C693.657,525.146 687.494,528.704 681.717,532.833L682.138,543.014C676.326,547.67 671.044,552.952 666.388,558.764L656.206,558.343C652.078,564.12 648.519,570.284 645.581,576.747L651.036,585.354C648.331,592.292 646.397,599.508 645.271,606.869L636.243,611.595C635.556,618.662 635.556,625.779 636.243,632.846L645.271,637.572C646.397,644.934 648.331,652.149 651.036,659.087L645.581,667.694C648.519,674.158 652.078,680.321 656.206,686.098L666.388,685.677C671.044,691.489 676.326,696.771 682.138,701.427L681.717,711.609C687.494,715.737 693.657,719.295 700.121,722.234L708.727,716.779C715.666,719.484 722.881,721.417 730.243,722.544L734.969,731.572C742.036,732.258 749.153,732.258 756.22,731.572L760.946,722.544C768.307,721.417 775.522,719.484 782.461,716.779L791.068,722.234C797.531,719.295 803.695,715.737 809.472,711.609L809.051,701.427C814.863,696.771 820.145,691.489 824.801,685.677L834.982,686.098C839.11,680.321 842.669,674.158 845.608,667.694L840.152,659.087C842.858,652.149 844.791,644.934 845.917,637.572L854.945,632.846C855.632,625.779 855.632,618.662 854.945,611.595L845.917,606.869C844.791,599.508 842.858,592.292 840.152,585.354L845.608,576.747C842.669,570.284 839.11,564.12 834.982,558.343L824.801,558.764C820.145,552.952 814.863,547.67 809.051,543.014L809.472,532.833C803.695,528.704 797.531,525.146 791.068,522.207L782.461,527.662C775.522,524.957 768.307,523.024 760.946,521.897L756.22,512.87Z" style="fill:rgb(37,125,220);"/>
                    </g>
                    <g transform="matrix(1.98743,0,0,1.98743,48.2437,-1301.64)">
                        <path d="M190.602,912.448L130.085,854.405L185.078,812.283L164.39,793.487L230.505,757.861L307.97,836.381C307.082,839.669 306.048,842.918 304.87,846.118L294.477,848.513C291.387,855.67 287.519,862.465 282.942,868.775L286.188,878.935C281.5,884.703 276.264,890.002 270.554,894.76L260.355,891.637C254.101,896.29 247.354,900.241 240.235,903.417L237.966,913.839C231.022,916.49 223.838,918.462 216.515,919.727L209.243,911.923C203.054,912.644 196.816,912.819 190.602,912.448Z" style="fill:url(#_Linear1);"/>
                    </g>
                    <g transform="matrix(2.0803,0,0,2.0803,70.6377,-118.322)">
                        <path d="M165.707,204.717C165.754,204.892 165.869,205.042 166.026,205.132C167.598,206.041 176.335,211.086 176.335,211.086L176.335,222.105C176.335,222.187 176.318,222.268 176.283,222.342L176.102,222.733C175.419,224.207 173.775,224.976 172.206,224.554L170.308,224.044C168.699,223.611 166.979,223.952 165.657,224.966C164.334,225.98 163.559,227.552 163.559,229.218L163.559,229.22C163.559,230.887 164.335,232.459 165.658,233.473C166.981,234.487 168.701,234.827 170.311,234.393L172.391,233.833C173.841,233.442 175.362,234.146 176.002,235.504L176.261,236.055C176.31,236.159 176.335,236.272 176.335,236.387L176.335,247.356L144.924,265.492L113.513,247.356L113.513,211.086L144.924,192.95C144.924,192.95 154.763,198.631 156.384,199.567C156.532,199.652 156.707,199.68 156.874,199.643C158.034,199.383 159.023,198.929 159.846,198.286C161.47,197.43 162.69,195.907 162.706,194.05C162.706,194.042 162.707,194.031 162.707,193.991C162.716,193.005 163.22,192.089 164.048,191.554C164.877,191.02 165.887,190.744 166.82,191.061C167.304,191.225 167.717,191.486 168.073,191.826C168.766,192.487 169.193,193.655 169.112,194.61C169.031,195.565 168.491,196.422 167.665,196.908C166.071,197.847 165.265,199.609 165.304,201.402C165.326,202.427 165.405,203.574 165.707,204.717Z" style="fill:white;"/>
                    </g>
                    <g transform="matrix(-1.04015,1.80159,-1.80159,-1.04015,1004.72,219.582)">
                        <path d="M165.707,204.717C165.754,204.892 165.869,205.042 166.026,205.132C167.598,206.041 176.335,211.086 176.335,211.086L176.335,222.105C176.335,222.187 176.318,222.268 176.283,222.342L176.102,222.733C175.419,224.207 173.775,224.976 172.206,224.554L170.308,224.044C168.699,223.611 166.979,223.952 165.657,224.966C164.334,225.98 163.559,227.552 163.559,229.218L163.559,229.22C163.559,230.887 164.335,232.459 165.658,233.473C166.981,234.487 168.701,234.827 170.311,234.393L172.391,233.833C173.841,233.442 175.362,234.146 176.002,235.504L176.261,236.055C176.31,236.159 176.335,236.272 176.335,236.387L176.335,247.356L144.924,265.492L113.513,247.356L113.513,211.086L144.924,192.95C144.924,192.95 154.76,198.629 156.384,199.566C156.532,199.652 156.708,199.679 156.876,199.642C158.033,199.377 159.006,198.892 159.865,198.333C161.302,197.201 162.69,195.891 162.706,194.035C162.706,194.027 162.706,193.992 162.707,193.991C162.716,193.005 163.22,192.089 164.048,191.554C164.877,191.02 165.887,190.742 166.82,191.061C167.291,191.222 167.72,191.46 168.073,191.826C168.738,192.516 169.193,193.655 169.112,194.61C169.031,195.565 168.491,196.422 167.665,196.908C166.071,197.847 165.265,199.609 165.304,201.402C165.326,202.427 165.405,203.574 165.707,204.717Z" style="fill:white;"/>
                    </g>
                    <g transform="matrix(-1.04529,-1.79862,1.79862,-1.04529,246.294,860.064)">
                        <path d="M165.707,204.717C165.754,204.892 165.869,205.042 166.026,205.132C167.598,206.041 176.335,211.086 176.335,211.086L176.335,222.105C176.335,222.187 176.318,222.268 176.283,222.342L176.102,222.733C175.419,224.207 173.775,224.976 172.206,224.554L170.308,224.044C168.699,223.611 166.979,223.952 165.657,224.966C164.334,225.98 163.559,227.552 163.559,229.218L163.559,229.22C163.559,230.887 164.335,232.459 165.658,233.473C166.981,234.487 168.701,234.827 170.311,234.393L172.391,233.833C173.841,233.442 175.362,234.146 176.002,235.504L176.261,236.055C176.31,236.159 176.335,236.272 176.335,236.387L176.335,247.356L144.924,265.492L113.513,247.356L113.513,211.086L144.924,192.95C144.924,192.95 154.77,198.635 156.386,199.568C156.531,199.652 156.702,199.679 156.866,199.646C158.03,199.407 159.025,199.101 159.911,198.585C160.92,197.997 162.691,195.903 162.707,194.047C162.707,194.039 162.708,194.035 162.707,193.991C162.716,193.005 163.22,192.089 164.048,191.554C164.877,191.02 165.886,190.745 166.82,191.061C167.295,191.222 167.703,191.488 168.073,191.826C168.781,192.472 169.193,193.655 169.112,194.61C169.031,195.565 168.491,196.422 167.665,196.908C166.071,197.847 165.265,199.609 165.304,201.402C165.326,202.427 165.405,203.574 165.707,204.717Z" style="fill:white;"/>
                    </g>
                </g>
            </g>
        </g>
    </g>
    <defs>
        <linearGradient id="_Linear1" x1="0" y1="0" x2="1" y2="0" gradientUnits="userSpaceOnUse" gradientTransform="matrix(93.3418,86.3658,-86.3658,93.3418,182.007,806.404)"><stop offset="0" style="stop-color:rgb(26,92,163);stop-opacity:1"/><stop offset="1" style="stop-color:rgb(33,116,206);stop-opacity:1"/></linearGradient>
    </defs>
</svg>
